<?xml version="1.0" encoding="utf-8"?>
<!-- Generator: Adobe Illustrator 16.0.0, SVG Export Plug-In . SVG Version: 6.00 Build 0)  -->
<!DOCTYPE svg PUBLIC "-//W3C//DTD SVG 1.1//EN" "http://www.w3.org/Graphics/SVG/1.1/DTD/svg11.dtd">
<svg version="1.1" id="Layer_1" xmlns="http://www.w3.org/2000/svg" xmlns:xlink="http://www.w3.org/1999/xlink" x="0px" y="0px"
	 width="50px" height="50px" viewBox="0 0 50 50" enable-background="new 0 0 50 50" xml:space="preserve">
<g>
	<path fill-rule="evenodd" clip-rule="evenodd" d="M25.001,50C38.808,50,50,38.808,50,25C50,11.251,38.808,0,25.001,0
		C11.25,0,0,11.251,0,25C0,38.808,11.25,50,25.001,50L25.001,50z"/>
	<path fill="#FFCC00" d="M34.263,36.592c0,0.284-0.055,0.511-0.282,0.625c-0.172,0.17-0.399,0.227-0.686,0.283
		c-0.283,0.057-0.567,0.114-0.851,0.114c-0.284,0-0.512,0-0.682,0c-0.397,0-0.797,0-1.194,0c-0.34,0-0.681-0.058-1.021-0.228
		c-0.284-0.057-0.513-0.228-0.684-0.454c-0.113-0.057-0.17-0.113-0.283-0.228c-0.057-0.113-0.171-0.227-0.228-0.283
		c-0.624-1.138-1.251-2.329-1.875-3.523c-0.625-1.192-1.307-2.387-1.988-3.578c-0.114-0.115-0.171-0.229-0.285-0.399
		c-0.114-0.113-0.227-0.228-0.454-0.341c-0.284-0.284-0.739-0.397-1.193-0.397c-0.341,0-0.625,0.057-1.022,0.228
		c-0.342,0.17-0.569,0.567-0.682,1.137c-0.057,0.114-0.057,0.171-0.114,0.284c0,0.113-0.057,0.227-0.057,0.284v5.853
		c0,0.113,0,0.227-0.057,0.454c-0.057,0.283-0.17,0.454-0.227,0.511c-0.342,0.397-0.625,0.567-1.023,0.624
		c-0.398,0-0.739,0.058-1.136,0.058c-0.285,0-0.625,0-0.966-0.058c-0.285,0-0.625-0.113-0.91-0.283
		c-0.17-0.114-0.34-0.284-0.455-0.625c-0.113-0.283-0.17-0.511-0.17-0.681V13.979c0-0.399,0.17-0.739,0.512-1.08
		c0.341-0.341,0.738-0.513,1.136-0.454h7.897c2.955,0.113,5.057,0.852,6.308,2.271c1.306,1.421,1.932,3.239,1.932,5.455
		c0,1.364-0.172,2.444-0.513,3.239c-0.397,0.738-0.795,1.362-1.192,1.875c-0.397,0.512-0.797,0.908-1.137,1.249
		c-0.397,0.397-0.568,0.797-0.568,1.365c0,0.057,0.057,0.227,0.057,0.454c0.058,0.17,0.114,0.396,0.171,0.567
		c0.17,0.399,0.454,0.854,0.737,1.421c0.286,0.567,0.627,1.138,0.968,1.762c0.34,0.682,0.681,1.306,1.078,1.932
		c0.343,0.682,0.684,1.249,1.023,1.819c0.06,0.113,0.114,0.227,0.114,0.396C34.263,36.365,34.263,36.535,34.263,36.592
		L34.263,36.592z M28.239,20.171c0-0.625-0.113-1.192-0.397-1.646c-0.341-0.456-0.681-0.797-1.194-1.08
		c-0.454-0.228-1.021-0.454-1.59-0.568c-0.625-0.113-1.193-0.172-1.818-0.172c-0.682,0-1.193,0.113-1.534,0.286
		c-0.341,0.227-0.569,0.511-0.739,0.852c-0.17,0.283-0.227,0.683-0.227,1.078c-0.057,0.399-0.057,0.854-0.057,1.251
		c0,0.511,0,0.965,0.057,1.364c0,0.454,0.114,0.795,0.227,1.135c0.17,0.341,0.455,0.568,0.796,0.74
		c0.34,0.171,0.853,0.284,1.534,0.284c0.625,0,1.421-0.113,2.273-0.284c0.908-0.227,1.592-0.681,2.103-1.421
		c0.227-0.397,0.397-0.682,0.454-0.967C28.183,20.74,28.239,20.454,28.239,20.171L28.239,20.171z"/>
	<path fill="#FFCC00" d="M41.25,34.773c0,0.854-0.281,1.592-0.849,2.103c-0.514,0.454-1.194,0.738-2.048,0.738
		c-0.795,0-1.476-0.284-2.044-0.795c-0.567-0.568-0.854-1.251-0.854-2.046c0-0.852,0.286-1.534,0.795-2.103
		c0.567-0.567,1.249-0.852,2.161-0.852c0.85,0,1.535,0.284,2.044,0.852C40.969,33.239,41.25,33.922,41.25,34.773L41.25,34.773z"/>
</g>
</svg>
