<?xml version="1.0" encoding="utf-8"?>
<!-- Generator: Adobe Illustrator 16.0.0, SVG Export Plug-In . SVG Version: 6.00 Build 0)  -->
<!DOCTYPE svg PUBLIC "-//W3C//DTD SVG 1.1//EN" "http://www.w3.org/Graphics/SVG/1.1/DTD/svg11.dtd">
<svg version="1.1" id="Layer_1" xmlns="http://www.w3.org/2000/svg" xmlns:xlink="http://www.w3.org/1999/xlink" x="0px" y="0px"
	 width="180px" height="21px" viewBox="0 0 180 21" enable-background="new 0 0 180 21" xml:space="preserve">
<path fill="#FFFFFF" d="M88.584,18.508c0,0.711-0.236,1.309-0.59,1.662c-0.472,0.355-1.063,0.594-1.656,0.594
	c-0.708,0-1.18-0.236-1.652-0.594c-0.472-0.475-0.708-1.07-0.708-1.662c0-0.712,0.236-1.188,0.708-1.66
	c0.354-0.474,0.944-0.711,1.652-0.711c0.712,0,1.302,0.237,1.656,0.711C88.466,17.32,88.584,17.796,88.584,18.508L88.584,18.508z"/>
<path fill="#FFFFFF" d="M67.087,2.136c0,0.119,0,0.355,0,0.474c0,0.119,0,0.476-0.236,0.713c0,0.119-0.236,0.238-0.472,0.356
	c-0.236,0.118-0.354,0.237-0.472,0.237h-2.364c0,0-0.118,0-0.236,0h-0.118c-0.472,0-0.826,0.237-0.944,0.593
	c-0.236,0.355-0.354,0.711-0.354,0.95v13.877c0,0.124,0,0.238-0.118,0.359c0,0.238-0.118,0.356-0.118,0.475
	c-0.236,0.237-0.472,0.355-0.826,0.475c-0.354,0-0.595,0-0.948,0c-0.236,0-0.472,0-0.708,0c-0.236,0-0.472-0.117-0.826-0.236
	c-0.118-0.117-0.236-0.237-0.354-0.475c0-0.236-0.118-0.474-0.118-0.598V5.458c0,0,0,0,0-0.119c0-0.12,0-0.12-0.118-0.239V4.982
	c0-0.119,0-0.119,0-0.119c0-0.355-0.236-0.592-0.59-0.711c-0.354-0.237-0.708-0.237-0.944-0.237h-2.364c0,0-0.118-0.119-0.236-0.119
	c-0.236-0.118-0.354-0.118-0.472-0.237c-0.236-0.119-0.472-0.475-0.472-0.711c0-0.358,0-0.594,0-0.713c0-0.119,0-0.356,0-0.475
	c0-0.119,0-0.474,0.236-0.711c0-0.118,0.236-0.239,0.472-0.357c0.236-0.119,0.472-0.119,0.59-0.119H65.79c0.118,0,0.236,0,0.472,0
	c0.118,0,0.236,0.119,0.354,0.237c0.236,0.121,0.472,0.357,0.472,0.713C67.087,1.661,67.087,1.898,67.087,2.136L67.087,2.136z"/>
<path fill="#FFFFFF" d="M83.034,14.71c0,1.188-0.236,2.257-0.712,3.086c-0.354,0.712-0.944,1.423-1.534,1.899
	c-0.708,0.475-1.416,0.83-2.36,0.949C77.598,20.883,76.653,21,75.827,21c-0.59,0-1.298,0-2.006-0.117
	c-0.712-0.119-1.42-0.238-2.128-0.593c-0.59-0.237-1.298-0.716-1.771-1.19c-0.59-0.592-1.065-1.304-1.42-2.133
	c0-0.238-0.118-0.355-0.118-0.476c0-0.117-0.118-0.354-0.118-0.474c-0.118-0.236-0.118-0.475-0.118-0.711
	c-0.118-0.238-0.118-0.359-0.118-0.479c0-0.237,0.118-0.594,0.236-0.711c0.118-0.119,0.354-0.238,0.472-0.356
	c0.236-0.118,0.472-0.118,0.712-0.118c0.236,0,0.354,0,0.472,0c0.354,0,0.708,0,0.944,0c0.118,0,0.354,0.118,0.59,0.236
	c0.118,0.119,0.354,0.355,0.472,0.594c0.236,0.236,0.354,0.711,0.59,1.07c0.118,0.355,0.354,0.593,0.826,0.947
	c0.358,0.355,0.712,0.594,1.066,0.713c0.118,0,0.118,0,0.236,0.117c0.118,0,0.236,0,0.354,0c0.118,0.119,0.236,0.119,0.472,0.119
	c0.118,0,0.236,0,0.354,0c0.236,0,0.473,0,0.826-0.119c0.236,0,0.59-0.117,0.944-0.354c0.236-0.118,0.472-0.356,0.712-0.593
	c0.236-0.237,0.354-0.594,0.354-0.948c0-0.356-0.118-0.597-0.354-0.952c-0.24-0.354-0.476-0.594-0.948-0.83
	c-0.708-0.354-1.416-0.711-2.124-0.947c-0.708-0.356-1.416-0.594-2.246-0.948c-0.708-0.356-1.298-0.711-1.888-1.067
	c-0.59-0.358-1.181-0.832-1.534-1.308c-0.358-0.593-0.594-1.185-0.712-1.778c-0.118-0.595-0.236-1.068-0.236-1.661
	c0-1.069,0.236-2.017,0.59-2.729c0.477-0.713,0.948-1.306,1.656-1.78c0.59-0.474,1.298-0.832,2.124-1.069
	C73.821,0.118,74.647,0,75.474,0c0.472,0,1.062,0,1.534,0.118c0.59,0.119,1.184,0.237,1.773,0.475
	c0.59,0.239,1.063,0.594,1.652,0.95c0.472,0.474,0.944,0.948,1.298,1.542c0.236,0.356,0.354,0.83,0.472,1.186
	c0.118,0.474,0.118,0.711,0.118,1.069c0,0.237,0,0.474-0.236,0.711c-0.118,0.119-0.236,0.237-0.472,0.356c-0.118,0-0.354,0-0.59,0
	s-0.354,0-0.472,0c-0.118,0-0.236,0.119-0.472,0.119c-0.236,0-0.472,0-0.708-0.119c-0.118,0-0.236-0.119-0.472-0.237
	c-0.118,0-0.354-0.237-0.472-0.474c0,0-0.118-0.119-0.118-0.237c-0.118,0-0.118-0.119-0.118-0.119
	c-0.358-0.713-0.83-1.069-1.302-1.306c-0.472-0.237-0.944-0.355-1.416-0.355c-0.236,0-0.472,0-0.826,0.118
	c-0.236,0-0.472,0.119-0.826,0.355c-0.24,0.119-0.476,0.356-0.594,0.474c-0.236,0.237-0.236,0.593-0.236,0.95
	c0,0.474,0.118,0.83,0.472,1.067c0.24,0.355,0.712,0.594,1.302,0.832c0.472,0.236,1.062,0.474,1.652,0.711
	c0.59,0.236,1.18,0.474,1.774,0.711c1.888,0.711,3.187,1.543,3.776,2.494C82.68,12.221,83.034,13.406,83.034,14.71L83.034,14.71z"/>
<path fill="#FFFFFF" d="M89.528,14.71c0,1.188,0.236,2.257,0.708,3.086c0.354,0.712,0.944,1.423,1.534,1.899
	c0.713,0.475,1.539,0.83,2.364,0.949C94.96,20.883,95.904,21,96.73,21c0.594,0,1.302,0,2.01-0.117
	c0.708-0.119,1.416-0.238,2.124-0.593c0.712-0.237,1.303-0.716,1.893-1.19c0.591-0.592,0.944-1.304,1.298-2.133
	c0.118-0.238,0.118-0.355,0.118-0.476c0.118-0.117,0.118-0.354,0.235-0.474c0-0.236,0-0.475,0.117-0.711c0-0.238,0-0.359,0-0.479
	c0-0.237-0.117-0.594-0.234-0.711c-0.118-0.119-0.236-0.238-0.473-0.356c-0.235-0.118-0.473-0.118-0.59-0.118
	c-0.236,0-0.473,0-0.59,0c-0.354,0-0.591,0-0.826,0c-0.236,0-0.473,0.118-0.713,0.236c-0.113,0.119-0.354,0.355-0.472,0.594
	c-0.118,0.236-0.354,0.711-0.59,1.07c-0.119,0.355-0.354,0.593-0.709,0.947c-0.472,0.355-0.826,0.594-1.181,0.713
	c0,0-0.117,0-0.235,0.117c-0.117,0-0.235,0-0.354,0c-0.117,0.119-0.235,0.119-0.473,0.119c-0.117,0-0.234,0-0.357,0
	c-0.235,0-0.473,0-0.826-0.119c-0.235,0-0.59-0.117-0.825-0.354c-0.354-0.118-0.591-0.356-0.826-0.593
	c-0.235-0.237-0.354-0.594-0.354-0.948c0-0.356,0.119-0.597,0.354-0.952c0.235-0.354,0.59-0.594,1.063-0.83
	c0.59-0.354,1.302-0.711,2.01-0.947c0.826-0.356,1.533-0.594,2.242-0.948c0.707-0.356,1.298-0.711,2.01-1.067
	c0.591-0.358,1.063-0.832,1.416-1.308c0.354-0.593,0.709-1.185,0.709-1.778c0.117-0.595,0.234-1.068,0.234-1.661
	c0-1.069-0.234-2.017-0.59-2.729c-0.472-0.713-0.943-1.306-1.533-1.78c-0.713-0.474-1.42-0.832-2.246-1.069S97.914,0,97.088,0
	c-0.472,0-0.947,0-1.537,0.118c-0.591,0.119-1.181,0.237-1.771,0.475c-0.59,0.239-1.062,0.594-1.533,0.95
	c-0.594,0.474-0.948,0.948-1.42,1.542c-0.118,0.356-0.354,0.83-0.472,1.186c-0.118,0.474-0.118,0.711-0.118,1.069
	c0,0.237,0.118,0.474,0.236,0.711c0.118,0.119,0.236,0.237,0.471,0.356c0.236,0,0.354,0,0.591,0c0.235,0,0.354,0,0.59,0
	c0,0,0.122,0.119,0.358,0.119c0.354,0,0.472,0,0.707-0.119c0.119,0,0.235-0.119,0.473-0.237c0.117,0,0.354-0.237,0.473-0.474
	c0.117,0,0.117-0.119,0.117-0.237c0.118,0,0.118-0.119,0.236-0.119c0.236-0.713,0.707-1.069,1.18-1.306
	c0.59-0.237,1.063-0.355,1.42-0.355c0.236,0,0.473,0,0.826,0.118c0.236,0,0.59,0.119,0.826,0.355
	c0.236,0.119,0.473,0.356,0.59,0.474c0.236,0.237,0.236,0.593,0.236,0.95c0,0.474-0.118,0.83-0.473,1.067
	c-0.236,0.355-0.708,0.594-1.298,0.832c-0.473,0.236-0.944,0.474-1.655,0.711c-0.591,0.236-1.182,0.474-1.771,0.711
	c-1.889,0.711-3.189,1.543-3.78,2.494C89.882,12.221,89.528,13.406,89.528,14.71L89.528,14.71z"/>
<path fill="#FFFFFF" d="M119.529,2.136c0,0.119,0,0.355,0,0.474c0,0.119,0,0.476-0.236,0.713c0,0.119-0.234,0.238-0.477,0.356
	c-0.235,0.118-0.354,0.237-0.471,0.237h-2.361c-0.117,0-0.117,0-0.235,0s-0.118,0-0.235,0c-0.354,0-0.709,0.237-0.943,0.593
	c-0.122,0.355-0.236,0.711-0.236,0.95v13.877c0,0.124-0.122,0.238-0.122,0.359c0,0.238-0.118,0.356-0.118,0.475
	c-0.234,0.237-0.59,0.355-0.824,0.475c-0.354,0-0.592,0-0.944,0c-0.236,0-0.472,0-0.708,0s-0.59-0.117-0.826-0.236
	c-0.118-0.117-0.236-0.237-0.354-0.475c0-0.236-0.119-0.474-0.119-0.598V5.458c0,0,0,0,0-0.119c0-0.12-0.117-0.12-0.117-0.239V4.982
	c0-0.119,0-0.119,0-0.119c0-0.355-0.236-0.592-0.594-0.711c-0.354-0.237-0.709-0.237-0.944-0.237h-2.36c0,0-0.117-0.119-0.354-0.119
	c-0.118-0.118-0.236-0.118-0.354-0.237c-0.24-0.119-0.477-0.475-0.477-0.711c0-0.358-0.118-0.594-0.118-0.713
	c0-0.119,0-0.356,0.118-0.475c0-0.118,0-0.474,0.234-0.711c0-0.118,0.119-0.239,0.478-0.357c0.235-0.119,0.472-0.119,0.59-0.119
	h11.81c0.117,0,0.234,0,0.354,0c0.236,0,0.357,0.119,0.477,0.237c0.235,0.121,0.354,0.357,0.473,0.713
	C119.529,1.661,119.529,1.898,119.529,2.136L119.529,2.136z"/>
<path fill="#FFFFFF" d="M137.128,1.779v12.456c-0.118,0.595-0.235,1.19-0.235,1.664c-0.117,0.593-0.357,1.067-0.595,1.541
	c-0.472,0.83-0.944,1.422-1.534,1.896c-0.59,0.359-1.18,0.717-1.77,1.071c-0.708,0.237-1.303,0.356-2.01,0.476
	C130.275,21,129.686,21,129.214,21c-0.59,0-1.181,0-1.892-0.117c-0.592-0.119-1.182-0.238-1.889-0.476
	c-0.591-0.237-1.181-0.593-1.771-1.071c-0.591-0.354-1.065-0.947-1.539-1.658c-0.354-0.474-0.472-1.066-0.59-1.66
	c-0.117-0.592-0.235-1.188-0.354-1.662V1.779c0.118-0.711,0.354-1.068,0.709-1.187c0.471-0.119,0.825-0.238,1.297-0.238
	c0.24,0,0.478,0,0.713,0.119c0.235,0,0.472,0,0.826,0.237c0.117,0,0.235,0.239,0.354,0.476c0,0.237,0.117,0.356,0.117,0.474v11.152
	c0,0.117,0,0.236,0,0.354c0,0.119,0,0.237,0,0.356c0.117,0.593,0.236,1.185,0.473,1.781c0.236,0.475,0.473,0.829,0.826,1.185
	s0.826,0.594,1.184,0.713c0.473,0.116,0.944,0.235,1.534,0.235c0.472,0,0.944-0.119,1.534-0.235c0.472-0.237,0.943-0.595,1.18-0.949
	c0.358-0.354,0.594-0.711,0.713-1.187c0.235-0.358,0.354-0.834,0.354-1.308c0.117-0.474,0.117-0.829,0.117-1.186V1.661
	c0-0.118,0-0.118,0.119-0.355c0-0.119,0.116-0.355,0.234-0.474c0.236-0.239,0.473-0.358,0.708-0.358
	c0.354-0.119,0.708-0.119,0.944-0.119c0.234,0,0.354,0,0.59,0.119c0.236,0,0.472,0,0.59,0.119c0.236,0,0.477,0.118,0.596,0.357
	C137.01,1.187,137.128,1.424,137.128,1.779L137.128,1.779z"/>
<path fill="#FFFFFF" d="M154.963,10.441c0,1.306-0.236,2.491-0.472,3.677c-0.354,1.065-0.83,2.137-1.421,3.086
	c-0.59,0.829-1.416,1.54-2.359,2.132c-0.943,0.598-2.01,0.954-3.309,1.071c-0.117,0-0.354,0.118-0.59,0.118
	c-0.236,0-0.473,0-0.709,0l-5.908,0.119c-0.354,0-0.707-0.237-0.943-0.476c-0.234-0.235-0.354-0.474-0.354-0.834V1.661
	c0-0.237,0.117-0.593,0.354-0.829c0.354-0.239,0.59-0.358,0.943-0.358h5.674c0.234,0,0.472,0,0.707,0
	c0.236,0,0.473,0.119,0.591,0.119s0.354,0,0.472,0.118c0.118,0,0.354,0,0.473,0c0.117,0.121,0.236,0.121,0.354,0.121
	c0.118,0,0.236,0.118,0.354,0.118c0.119,0,0.236,0,0.354,0c0.118,0.118,0.118,0.118,0.235,0.118c0.477,0.237,1.066,0.475,1.539,0.83
	c0.59,0.238,1.062,0.711,1.416,1.188c0.472,0.475,0.826,0.948,1.062,1.423c0.236,0.355,0.476,0.832,0.712,1.306
	c0.236,0.711,0.473,1.543,0.59,2.373C154.846,8.898,154.963,9.73,154.963,10.441L154.963,10.441z M150.829,10.441
	c0-0.832-0.118-1.662-0.354-2.492c-0.235-0.832-0.59-1.543-1.065-2.136c-0.472-0.594-1.062-1.069-1.888-1.424
	c-0.709-0.356-1.651-0.474-2.602-0.474c-0.354,0-0.824,0-1.18,0.118c-0.473,0.237-0.708,0.475-0.826,1.067c0,0.119,0,0.119,0,0.239
	c0,0.119-0.117,0.119-0.117,0.119v10.085c0,0.119,0.117,0.355,0.235,0.711c0.235,0.475,0.472,0.712,0.708,0.712
	c0.354,0.118,0.59,0.118,0.708,0.118s0.235,0.119,0.472,0.119c0.596,0,1.186-0.119,1.656-0.237c0.591-0.118,1.181-0.356,1.652-0.593
	c0.473-0.355,0.943-0.711,1.303-1.305c0.354-0.479,0.707-1.189,0.943-2.02c0.117-0.475,0.235-0.947,0.235-1.423
	C150.829,11.154,150.829,10.798,150.829,10.441L150.829,10.441z"/>
<path fill="#FFFFFF" d="M160.277,19.336c0,0.124,0,0.238,0,0.359c0,0.238-0.118,0.356-0.236,0.475
	c-0.236,0.237-0.473,0.355-0.708,0.475c-0.354,0-0.708,0-0.948,0c-0.234,0-0.472,0-0.826,0c-0.234,0-0.472-0.117-0.707-0.236
	c-0.117-0.117-0.235-0.237-0.354-0.475c-0.118-0.236-0.118-0.474-0.118-0.598V1.661c0-0.118,0-0.118,0-0.355
	c0.118-0.119,0.118-0.355,0.236-0.474c0.235-0.239,0.472-0.358,0.825-0.358c0.354-0.119,0.591-0.119,0.943-0.119
	c0.122,0,0.358,0,0.713,0.119c0.235,0,0.473,0,0.707,0.237c0.236,0,0.354,0.239,0.354,0.476c0.118,0.237,0.118,0.356,0.118,0.474
	V19.336z"/>
<path fill="#FFFFFF" d="M180,10.558c0,1.545-0.236,2.967-0.59,4.271c-0.354,1.308-0.944,2.375-1.771,3.321
	c-0.707,0.949-1.65,1.664-2.836,2.14c-1.062,0.474-2.359,0.71-3.896,0.71c-0.592,0-1.182,0-1.889-0.117
	c-0.709-0.119-1.299-0.355-1.771-0.476c-0.478-0.237-0.948-0.474-1.421-0.833c-0.59-0.355-1.063-0.713-1.534-1.305
	c-0.59-0.593-0.942-1.186-1.302-1.778c-0.354-0.71-0.59-1.423-0.708-2.019c-0.236-0.712-0.354-1.423-0.354-2.135
	c-0.117-0.592-0.117-1.303-0.117-1.897c0-1.543,0.234-2.966,0.59-4.272c0.476-1.306,1.064-2.373,1.773-3.321
	c0.826-0.832,1.77-1.543,2.949-2.138c1.068-0.473,2.366-0.71,3.783-0.71c0.711,0,1.302,0.118,2.01,0.237
	c0.59,0.118,1.298,0.356,2.006,0.713c1.066,0.474,2.01,1.066,2.6,1.898c0.709,0.83,1.182,1.66,1.535,2.491
	c0.473,0.83,0.707,1.778,0.825,2.729C180,8.898,180,9.73,180,10.558L180,10.558z M175.866,10.558c0-0.591-0.118-1.304-0.236-2.016
	c-0.118-0.83-0.472-1.543-0.825-2.373c-0.354-0.711-0.826-1.306-1.416-1.78c-0.709-0.474-1.535-0.711-2.481-0.711
	c-0.944,0-1.771,0.237-2.36,0.711c-0.708,0.474-1.186,1.069-1.538,1.78c-0.354,0.83-0.59,1.542-0.825,2.373
	c-0.119,0.711-0.119,1.424-0.119,2.016c0,0.478,0,1.07,0.119,1.663c0,0.594,0.235,1.187,0.471,1.778
	c0.236,0.711,0.473,1.185,0.949,1.782c0.354,0.474,0.826,0.947,1.533,1.304c0.354,0.119,0.708,0.235,0.944,0.354
	c0.354,0,0.59,0,0.826,0c0.946,0,1.772-0.235,2.481-0.711c0.59-0.475,1.063-1.186,1.416-1.899c0.354-0.711,0.707-1.423,0.825-2.253
	C175.748,11.747,175.866,11.036,175.866,10.558L175.866,10.558z"/>
<path fill="#FFFFFF" d="M14.881,19.814c0,0.237-0.118,0.476-0.236,0.593c-0.236,0-0.354,0.118-0.59,0.237c-0.236,0-0.472,0-0.708,0
	c-0.236,0-0.354,0-0.59,0c-0.236,0-0.59,0-0.826,0c-0.358,0-0.594,0-0.948-0.119c-0.118-0.118-0.354-0.235-0.472-0.355
	c-0.118-0.117-0.118-0.117-0.236-0.236c-0.118-0.117-0.118-0.117-0.236-0.236c-0.472-0.952-0.944-1.9-1.416-2.85
	s-1.062-1.899-1.656-2.849c0-0.119-0.118-0.119-0.236-0.237c0-0.236-0.118-0.236-0.354-0.354c-0.235-0.237-0.59-0.355-0.943-0.355
	c-0.236,0-0.473,0.118-0.826,0.237c-0.236,0.118-0.472,0.475-0.472,0.947c0,0-0.118,0.119-0.118,0.236v0.119v4.744
	c0,0.124-0.118,0.238-0.118,0.359c0,0.238-0.118,0.356-0.236,0.475c-0.118,0.237-0.472,0.355-0.712,0.475c-0.354,0-0.59,0-0.944,0
	c-0.236,0-0.472,0-0.708,0c-0.354,0-0.59-0.117-0.826-0.236c-0.118-0.117-0.236-0.237-0.354-0.475C0.118,19.695,0,19.46,0,19.336
	V1.661c0-0.237,0.118-0.593,0.472-0.829c0.236-0.239,0.472-0.358,0.826-0.358h6.381c2.36,0,4.012,0.713,5.078,1.781
	c0.944,1.187,1.416,2.609,1.416,4.39c0,1.187-0.118,2.017-0.354,2.609c-0.354,0.595-0.59,1.069-0.943,1.545
	c-0.354,0.356-0.59,0.711-0.944,0.949c-0.24,0.355-0.476,0.711-0.476,1.066c0,0.117,0.118,0.236,0.118,0.354
	c0,0.237,0,0.356,0.118,0.474c0.118,0.356,0.358,0.713,0.594,1.188c0.236,0.479,0.472,0.952,0.708,1.426
	c0.354,0.475,0.59,1.066,0.944,1.541c0.236,0.475,0.472,1.066,0.708,1.423c0.118,0.117,0.118,0.241,0.118,0.355
	C14.881,19.695,14.881,19.814,14.881,19.814L14.881,19.814z M10.039,6.644c0-0.475-0.118-0.949-0.354-1.304
	C9.448,4.982,9.095,4.745,8.74,4.508C8.387,4.271,7.915,4.152,7.438,4.034C6.966,3.916,6.494,3.916,6.022,3.916
	c-0.59,0-0.944,0-1.298,0.237c-0.236,0.119-0.473,0.356-0.59,0.592c0,0.238-0.118,0.595-0.118,0.951c0,0.237,0,0.593,0,0.949
	c0,0.474,0,0.832,0,1.187c0,0.237,0.118,0.592,0.235,0.83c0.118,0.237,0.236,0.474,0.59,0.593c0.236,0.119,0.708,0.237,1.18,0.237
	c0.59,0,1.18-0.119,1.892-0.237c0.708-0.119,1.18-0.593,1.652-1.185C9.685,7.831,9.92,7.594,9.92,7.357
	C9.92,7.118,10.039,6.881,10.039,6.644L10.039,6.644z"/>
<path fill="#FFA300" d="M34.018,5.577c-0.83,1.422-1.302,3.084-1.302,4.981c0,1.781,0.472,3.441,1.302,4.986
	c0.826-1.545,1.298-3.205,1.298-4.986C35.315,8.661,34.844,6.999,34.018,5.577L34.018,5.577z"/>
<path fill="#FFCC00" d="M34.018,5.577c-1.774-3.086-4.964-5.103-8.622-5.103c-5.555,0-10.043,4.509-10.043,10.084
	c0,5.459,4.488,9.969,10.043,9.969c3.658,0,6.848-2.02,8.622-4.982c-0.83-1.545-1.302-3.205-1.302-4.986
	C32.716,8.661,33.188,6.999,34.018,5.577L34.018,5.577z"/>
<path fill="#FFCC00" d="M52.561,10.558c0-5.575-4.37-10.084-9.925-10.084c-3.658,0-6.966,2.017-8.618,5.103
	c0.826,1.422,1.298,3.084,1.298,4.981c0,1.781-0.472,3.441-1.298,4.986c1.652,2.964,4.96,4.981,8.618,4.981
	C48.19,20.525,52.561,16.018,52.561,10.558L52.561,10.558z"/>
</svg>
